<?xml version="1.0" standalone="no"?><!DOCTYPE svg PUBLIC "-//W3C//DTD SVG 1.1//EN" "http://www.w3.org/Graphics/SVG/1.1/DTD/svg11.dtd"><svg t="1655732276568" class="icon" viewBox="0 0 1024 1024" version="1.1" xmlns="http://www.w3.org/2000/svg" p-id="1255" width="200" height="200" xmlns:xlink="http://www.w3.org/1999/xlink"><defs><style type="text/css">@font-face { font-family: feedback-iconfont; src: url("//at.alicdn.com/t/font_1031158_u69w8yhxdu.woff2?t=1630033759944") format("woff2"), url("//at.alicdn.com/t/font_1031158_u69w8yhxdu.woff?t=1630033759944") format("woff"), url("//at.alicdn.com/t/font_1031158_u69w8yhxdu.ttf?t=1630033759944") format("truetype"); }
</style></defs><path d="M512 64C264.576 64 64 264.576 64 512c0 247.423 200.576 448 448 448s448-200.577 448-448c0-247.424-200.576-448-448-448z m0 816c-202.916 0-368-165.084-368-368s165.084-368 368-368 368 165.084 368 368-165.084 368-368 368z" fill="#1296db" p-id="1256"></path><path d="M512 288c-22.092 0-40 17.908-40 40v240c0 22.091 17.908 40 40 40s40-17.909 40-40V328c0-22.092-17.908-40-40-40z" fill="#1296db" p-id="1257"></path><path d="M512 696m-40 0a40 40 0 1 0 80 0 40 40 0 1 0-80 0Z" fill="#1296db" p-id="1258"></path></svg>