<?xml version="1.0" standalone="no"?><!DOCTYPE svg PUBLIC "-//W3C//DTD SVG 1.1//EN" "http://www.w3.org/Graphics/SVG/1.1/DTD/svg11.dtd"><svg t="1655717661910" class="icon" viewBox="0 0 1024 1024" version="1.1" xmlns="http://www.w3.org/2000/svg" p-id="1426" data-spm-anchor-id="a313x.7781069.0.i5" xmlns:xlink="http://www.w3.org/1999/xlink" width="200" height="200"><defs><style type="text/css">@font-face { font-family: feedback-iconfont; src: url("//at.alicdn.com/t/font_1031158_u69w8yhxdu.woff2?t=1630033759944") format("woff2"), url("//at.alicdn.com/t/font_1031158_u69w8yhxdu.woff?t=1630033759944") format("woff"), url("//at.alicdn.com/t/font_1031158_u69w8yhxdu.ttf?t=1630033759944") format("truetype"); }
</style></defs><path d="M512 955.6c-118.4 0-229.8-46.2-313.6-130-83.8-83.8-130-195.2-130-313.6s46.2-229.8 130-313.6 195.2-130 313.6-130 229.8 46.2 313.6 130c83.8 83.8 130 195.2 130 313.6s-46.2 229.8-130 313.6c-83.8 83.8-195.2 130-313.6 130z m0-827.2c-211.6 0-383.6 172-383.6 383.6s172 383.6 383.6 383.6 383.6-172 383.6-383.6S723.6 128.4 512 128.4z m-2 528.6l196.8-196.8c11.8-11.8 11.8-30.8 0-42.4-11.8-11.8-30.8-11.8-42.4 0l-175.6 175.6-106-106c-11.8-11.8-30.8-11.8-42.4 0-11.8 11.8-11.8 30.8 0 42.4l127.2 127.2c5.8 5.8 13.6 8.8 21.2 8.8s15.4-2.8 21.2-8.8z" p-id="1427" data-spm-anchor-id="a313x.7781069.0.i0" class="" fill="#1e9741"></path></svg>